<svg width="1647" height="2066" viewBox="0 0 1647 2066" fill="none" xmlns="http://www.w3.org/2000/svg">
<ellipse cx="14.5029" cy="2009.99" rx="9.50287" ry="9.47368" fill="#030303" stroke="#030303" stroke-width="9"/>
<ellipse cx="24.1455" cy="1904.13" rx="9.50287" ry="9.47368" fill="#030303" stroke="#030303" stroke-width="9"/>
<ellipse cx="23.0996" cy="1796.51" rx="9.50287" ry="9.47368" fill="#030303" stroke="#030303" stroke-width="9"/>
<ellipse cx="30.9819" cy="1691.53" rx="9.50287" ry="9.47368" fill="#030303" stroke="#030303" stroke-width="9"/>
<ellipse cx="48.9379" cy="1595.22" rx="9.50287" ry="9.47368" fill="#030303" stroke="#030303" stroke-width="9"/>
<ellipse cx="64.415" cy="1511.33" rx="9.50287" ry="9.47368" fill="#030303" stroke="#030303" stroke-width="9"/>
<ellipse cx="64.7607" cy="1405" rx="9.50287" ry="9.47368" fill="#030303" stroke="#030303" stroke-width="9"/>
<ellipse cx="58.206" cy="1283.97" rx="9.50287" ry="9.47368" fill="#030303" stroke="#030303" stroke-width="9"/>
<ellipse cx="57.5258" cy="1175.59" rx="9.50287" ry="9.47368" fill="#030303" stroke="#030303" stroke-width="9"/>
<ellipse cx="65.8935" cy="1086.87" rx="9.50287" ry="9.47368" fill="#030303" stroke="#030303" stroke-width="9"/>
<ellipse cx="67.4589" cy="990.266" rx="9.50287" ry="9.47368" fill="#030303" stroke="#030303" stroke-width="9"/>
<ellipse cx="66.2734" cy="873.789" rx="9.50287" ry="9.47368" fill="#030303" stroke="#030303" stroke-width="9"/>
<ellipse cx="66.351" cy="766.8" rx="9.50287" ry="9.47368" fill="#030303" stroke="#030303" stroke-width="9"/>
<ellipse cx="67.2973" cy="675.972" rx="9.50287" ry="9.47368" fill="#030303" stroke="#030303" stroke-width="9"/>
<ellipse cx="60.0781" cy="591.619" rx="9.50287" ry="9.47368" fill="#030303" stroke="#030303" stroke-width="9"/>
<ellipse cx="38.2202" cy="505.837" rx="9.50287" ry="9.47368" fill="#030303" stroke="#030303" stroke-width="9"/>
<ellipse cx="36.8403" cy="399.211" rx="9.50287" ry="9.47368" fill="#030303" stroke="#030303" stroke-width="9"/>
<ellipse cx="45.5073" cy="286.295" rx="9.50287" ry="9.47368" fill="#030303" stroke="#030303" stroke-width="9"/>
<ellipse cx="56.5234" cy="167.62" rx="9.50287" ry="9.47368" fill="#030303" stroke="#030303" stroke-width="9"/>
<ellipse cx="61.9863" cy="51.1275" rx="9.50287" ry="9.47368" fill="#030303" stroke="#030303" stroke-width="9"/>
<ellipse cx="112.894" cy="2013.47" rx="9.50287" ry="9.47368" fill="#030303" stroke="#030303" stroke-width="9"/>
<ellipse cx="107.647" cy="1904.42" rx="9.50287" ry="9.47368" fill="#030303" stroke="#030303" stroke-width="9"/>
<ellipse cx="112" cy="1798.4" rx="9.50287" ry="9.47368" fill="#030303" stroke="#030303" stroke-width="9"/>
<ellipse cx="122.685" cy="1696.13" rx="9.50287" ry="9.47368" fill="#030303" stroke="#030303" stroke-width="9"/>
<ellipse cx="136.509" cy="1600.64" rx="9.50287" ry="9.47368" fill="#030303" stroke="#030303" stroke-width="9"/>
<ellipse cx="147.843" cy="1514.78" rx="9.50287" ry="9.47368" fill="#030303" stroke="#030303" stroke-width="9"/>
<ellipse cx="145.245" cy="1400.02" rx="9.50287" ry="9.47368" fill="#030303" stroke="#030303" stroke-width="9"/>
<ellipse cx="145.687" cy="1293.71" rx="9.50287" ry="9.47368" fill="#030303" stroke="#030303" stroke-width="9"/>
<ellipse cx="145.972" cy="1187.05" rx="9.50287" ry="9.47368" fill="#030303" stroke="#030303" stroke-width="9"/>
<ellipse cx="147.741" cy="1084.95" rx="9.50287" ry="9.47368" fill="#030303" stroke="#030303" stroke-width="9"/>
<ellipse cx="149.551" cy="986.885" rx="9.50287" ry="9.47368" fill="#030303" stroke="#030303" stroke-width="9"/>
<ellipse cx="147.283" cy="868.664" rx="9.50287" ry="9.47368" fill="#030303" stroke="#030303" stroke-width="9"/>
<ellipse cx="148.458" cy="765.638" rx="9.50287" ry="9.47368" fill="#030303" stroke="#030303" stroke-width="9"/>
<ellipse cx="149.622" cy="676.337" rx="9.50287" ry="9.47368" fill="#030303" stroke="#030303" stroke-width="9"/>
<ellipse cx="144.775" cy="587.048" rx="9.50287" ry="9.47368" fill="#030303" stroke="#030303" stroke-width="9"/>
<ellipse cx="134.526" cy="494.969" rx="9.50287" ry="9.47368" fill="#030303" stroke="#030303" stroke-width="9"/>
<ellipse cx="129.843" cy="392.061" rx="9.50287" ry="9.47368" fill="#030303" stroke="#030303" stroke-width="9"/>
<ellipse cx="127.205" cy="286.803" rx="9.50287" ry="9.47368" fill="#030303" stroke="#030303" stroke-width="9"/>
<ellipse cx="131.154" cy="176.175" rx="9.50287" ry="9.47368" fill="#030303" stroke="#030303" stroke-width="9"/>
<ellipse cx="135.346" cy="64.6036" rx="9.50287" ry="9.47368" fill="#030303" stroke="#030303" stroke-width="9"/>
<ellipse cx="191.717" cy="2012.27" rx="9.50287" ry="9.47368" fill="#030303" stroke="#030303" stroke-width="9"/>
<ellipse cx="197.823" cy="1907.13" rx="9.50287" ry="9.47368" fill="#030303" stroke="#030303" stroke-width="9"/>
<ellipse cx="201.832" cy="1801.68" rx="9.50287" ry="9.47368" fill="#030303" stroke="#030303" stroke-width="9"/>
<ellipse cx="212.535" cy="1701.6" rx="9.50287" ry="9.47368" fill="#030303" stroke="#030303" stroke-width="9"/>
<ellipse cx="223.474" cy="1606.93" rx="9.50287" ry="9.47368" fill="#030303" stroke="#030303" stroke-width="9"/>
<ellipse cx="228.75" cy="1510.26" rx="9.50287" ry="9.47368" fill="#030303" stroke="#030303" stroke-width="9"/>
<ellipse cx="230.789" cy="1409.73" rx="9.50287" ry="9.47368" fill="#030303" stroke="#030303" stroke-width="9"/>
<ellipse cx="231.686" cy="1307.19" rx="9.50287" ry="9.47368" fill="#030303" stroke="#030303" stroke-width="9"/>
<ellipse cx="230.82" cy="1195.13" rx="9.50287" ry="9.47368" fill="#030303" stroke="#030303" stroke-width="9"/>
<ellipse cx="228.054" cy="1079" rx="9.50287" ry="9.47368" fill="#030303" stroke="#030303" stroke-width="9"/>
<ellipse cx="230.851" cy="980.528" rx="9.50287" ry="9.47368" fill="#030303" stroke="#030303" stroke-width="9"/>
<ellipse cx="231.392" cy="875.857" rx="9.50287" ry="9.47368" fill="#030303" stroke="#030303" stroke-width="9"/>
<ellipse cx="232.026" cy="783.19" rx="9.50287" ry="9.47368" fill="#030303" stroke="#030303" stroke-width="9"/>
<ellipse cx="229.283" cy="688.966" rx="9.50287" ry="9.47368" fill="#030303" stroke="#030303" stroke-width="9"/>
<ellipse cx="230.65" cy="576.861" rx="9.50287" ry="9.47368" fill="#030303" stroke="#030303" stroke-width="9"/>
<ellipse cx="229.348" cy="474.033" rx="9.50287" ry="9.47368" fill="#030303" stroke="#030303" stroke-width="9"/>
<ellipse cx="221.688" cy="381.736" rx="9.50287" ry="9.47368" fill="#030303" stroke="#030303" stroke-width="9"/>
<ellipse cx="208.403" cy="287.652" rx="9.50287" ry="9.47368" fill="#030303" stroke="#030303" stroke-width="9"/>
<ellipse cx="207.682" cy="180.79" rx="9.50287" ry="9.47368" fill="#030303" stroke="#030303" stroke-width="9"/>
<ellipse cx="215.279" cy="67.1412" rx="9.50287" ry="9.47368" fill="#030303" stroke="#030303" stroke-width="9"/>
<ellipse cx="259.824" cy="2009.89" rx="9.50287" ry="9.47368" fill="#030303" stroke="#030303" stroke-width="9"/>
<ellipse cx="266.211" cy="1903.13" rx="9.50287" ry="9.47368" fill="#030303" stroke="#030303" stroke-width="9"/>
<ellipse cx="274.286" cy="1797.6" rx="9.50287" ry="9.47368" fill="#030303" stroke="#030303" stroke-width="9"/>
<ellipse cx="289.214" cy="1697.29" rx="9.50287" ry="9.47368" fill="#030303" stroke="#030303" stroke-width="9"/>
<ellipse cx="302.868" cy="1602.68" rx="9.50287" ry="9.47368" fill="#030303" stroke="#030303" stroke-width="9"/>
<ellipse cx="309.467" cy="1506.27" rx="9.50287" ry="9.47368" fill="#030303" stroke="#030303" stroke-width="9"/>
<ellipse cx="313.912" cy="1413.67" rx="9.50287" ry="9.47368" fill="#030303" stroke="#030303" stroke-width="9"/>
<ellipse cx="314.246" cy="1308.78" rx="9.50287" ry="9.47368" fill="#030303" stroke="#030303" stroke-width="9"/>
<ellipse cx="312.851" cy="1193.78" rx="9.50287" ry="9.47368" fill="#030303" stroke="#030303" stroke-width="9"/>
<ellipse cx="309.077" cy="1075.97" rx="9.50287" ry="9.47368" fill="#030303" stroke="#030303" stroke-width="9"/>
<ellipse cx="311.687" cy="975.07" rx="9.50287" ry="9.47368" fill="#030303" stroke="#030303" stroke-width="9"/>
<ellipse cx="314.051" cy="877.758" rx="9.50287" ry="9.47368" fill="#030303" stroke="#030303" stroke-width="9"/>
<ellipse cx="313.512" cy="789.315" rx="9.50287" ry="9.47368" fill="#030303" stroke="#030303" stroke-width="9"/>
<ellipse cx="309.955" cy="693.366" rx="9.50287" ry="9.47368" fill="#030303" stroke="#030303" stroke-width="9"/>
<ellipse cx="313.568" cy="574.297" rx="9.50287" ry="9.47368" fill="#030303" stroke="#030303" stroke-width="9"/>
<ellipse cx="313.394" cy="467.78" rx="9.50287" ry="9.47368" fill="#030303" stroke="#030303" stroke-width="9"/>
<ellipse cx="308.226" cy="374.908" rx="9.50287" ry="9.47368" fill="#030303" stroke="#030303" stroke-width="9"/>
<ellipse cx="291.577" cy="287.058" rx="9.50287" ry="9.47368" fill="#030303" stroke="#030303" stroke-width="9"/>
<ellipse cx="282.151" cy="185.351" rx="9.50287" ry="9.47368" fill="#030303" stroke="#030303" stroke-width="9"/>
<ellipse cx="282.189" cy="77.9639" rx="9.50287" ry="9.47368" fill="#030303" stroke="#030303" stroke-width="9"/>
<ellipse cx="318.502" cy="2014.02" rx="9.50287" ry="9.47368" fill="#030303" stroke="#030303" stroke-width="9"/>
<ellipse cx="314.221" cy="1908.59" rx="9.50287" ry="9.47368" fill="#030303" stroke="#030303" stroke-width="9"/>
<ellipse cx="330.089" cy="1795.96" rx="9.50287" ry="9.47368" fill="#030303" stroke="#030303" stroke-width="9"/>
<ellipse cx="351.392" cy="1688.9" rx="9.50287" ry="9.47368" fill="#030303" stroke="#030303" stroke-width="9"/>
<ellipse cx="370.313" cy="1589.11" rx="9.50287" ry="9.47368" fill="#030303" stroke="#030303" stroke-width="9"/>
<ellipse cx="388.143" cy="1499.49" rx="9.50287" ry="9.47368" fill="#030303" stroke="#030303" stroke-width="9"/>
<ellipse cx="394.778" cy="1406.91" rx="9.50287" ry="9.47368" fill="#030303" stroke="#030303" stroke-width="9"/>
<ellipse cx="395.035" cy="1300.47" rx="9.50287" ry="9.47368" fill="#030303" stroke="#030303" stroke-width="9"/>
<ellipse cx="393.205" cy="1187.46" rx="9.50287" ry="9.47368" fill="#030303" stroke="#030303" stroke-width="9"/>
<ellipse cx="392.623" cy="1078.63" rx="9.50287" ry="9.47368" fill="#030303" stroke="#030303" stroke-width="9"/>
<ellipse cx="393.189" cy="972.68" rx="9.50287" ry="9.47368" fill="#030303" stroke="#030303" stroke-width="9"/>
<ellipse cx="396.477" cy="878.264" rx="9.50287" ry="9.47368" fill="#030303" stroke="#030303" stroke-width="9"/>
<ellipse cx="395.475" cy="791.139" rx="9.50287" ry="9.47368" fill="#030303" stroke="#030303" stroke-width="9"/>
<ellipse cx="391.023" cy="696.15" rx="9.50287" ry="9.47368" fill="#030303" stroke="#030303" stroke-width="9"/>
<ellipse cx="394.738" cy="579.233" rx="9.50287" ry="9.47368" fill="#030303" stroke="#030303" stroke-width="9"/>
<ellipse cx="394.553" cy="472.499" rx="9.50287" ry="9.47368" fill="#030303" stroke="#030303" stroke-width="9"/>
<ellipse cx="393.761" cy="367.557" rx="9.50287" ry="9.47368" fill="#030303" stroke="#030303" stroke-width="9"/>
<ellipse cx="382.47" cy="279.284" rx="9.50287" ry="9.47368" fill="#030303" stroke="#030303" stroke-width="9"/>
<ellipse cx="364.975" cy="185.127" rx="9.50287" ry="9.47368" fill="#030303" stroke="#030303" stroke-width="9"/>
<ellipse cx="344.273" cy="83.3648" rx="9.50287" ry="9.47368" fill="#030303" stroke="#030303" stroke-width="9"/>
<ellipse cx="381.044" cy="2027.45" rx="9.50287" ry="9.47368" fill="#030303" stroke="#030303" stroke-width="9"/>
<ellipse cx="387.401" cy="1914.37" rx="9.50287" ry="9.47368" fill="#030303" stroke="#030303" stroke-width="9"/>
<ellipse cx="391.036" cy="1804.41" rx="9.50287" ry="9.47368" fill="#030303" stroke="#030303" stroke-width="9"/>
<ellipse cx="409.559" cy="1689.18" rx="9.50287" ry="9.47368" fill="#030303" stroke="#030303" stroke-width="9"/>
<ellipse cx="443.07" cy="1584.28" rx="9.50287" ry="9.47368" fill="#030303" stroke="#030303" stroke-width="9"/>
<ellipse cx="472.611" cy="1503.1" rx="9.50287" ry="9.47368" fill="#030303" stroke="#030303" stroke-width="9"/>
<ellipse cx="472.967" cy="1396.41" rx="9.50287" ry="9.47368" fill="#030303" stroke="#030303" stroke-width="9"/>
<ellipse cx="475.674" cy="1295.12" rx="9.50287" ry="9.47368" fill="#030303" stroke="#030303" stroke-width="9"/>
<ellipse cx="476.942" cy="1191.51" rx="9.50287" ry="9.47368" fill="#030303" stroke="#030303" stroke-width="9"/>
<ellipse cx="479.194" cy="1096.68" rx="9.50287" ry="9.47368" fill="#030303" stroke="#030303" stroke-width="9"/>
<ellipse cx="479.272" cy="990.776" rx="9.50287" ry="9.47368" fill="#030303" stroke="#030303" stroke-width="9"/>
<ellipse cx="478.548" cy="894.943" rx="9.50287" ry="9.47368" fill="#030303" stroke="#030303" stroke-width="9"/>
<ellipse cx="477.48" cy="792.568" rx="9.50287" ry="9.47368" fill="#030303" stroke="#030303" stroke-width="9"/>
<ellipse cx="473.651" cy="695.6" rx="9.50287" ry="9.47368" fill="#030303" stroke="#030303" stroke-width="9"/>
<ellipse cx="473.082" cy="589.373" rx="9.50287" ry="9.47368" fill="#030303" stroke="#030303" stroke-width="9"/>
<ellipse cx="473.817" cy="480.514" rx="9.50287" ry="9.47368" fill="#030303" stroke="#030303" stroke-width="9"/>
<ellipse cx="471.457" cy="377.589" rx="9.50287" ry="9.47368" fill="#030303" stroke="#030303" stroke-width="9"/>
<ellipse cx="463.644" cy="280.566" rx="9.50287" ry="9.47368" fill="#030303" stroke="#030303" stroke-width="9"/>
<ellipse cx="446.596" cy="185.478" rx="9.50287" ry="9.47368" fill="#030303" stroke="#030303" stroke-width="9"/>
<ellipse cx="419.01" cy="83.4356" rx="9.50287" ry="9.47368" fill="#030303" stroke="#030303" stroke-width="9"/>
<ellipse cx="481.703" cy="2014.66" rx="9.50287" ry="9.47368" fill="#030303" stroke="#030303" stroke-width="9"/>
<ellipse cx="483.098" cy="1906.7" rx="9.50287" ry="9.47368" fill="#030303" stroke="#030303" stroke-width="9"/>
<ellipse cx="486.216" cy="1798.16" rx="9.50287" ry="9.47368" fill="#030303" stroke="#030303" stroke-width="9"/>
<ellipse cx="504.906" cy="1687.74" rx="9.50287" ry="9.47368" fill="#030303" stroke="#030303" stroke-width="9"/>
<ellipse cx="534.831" cy="1588.98" rx="9.50287" ry="9.47368" fill="#030303" stroke="#030303" stroke-width="9"/>
<ellipse cx="554.106" cy="1501.55" rx="9.50287" ry="9.47368" fill="#030303" stroke="#030303" stroke-width="9"/>
<ellipse cx="558.982" cy="1405.21" rx="9.50287" ry="9.47368" fill="#030303" stroke="#030303" stroke-width="9"/>
<ellipse cx="561.45" cy="1310.09" rx="9.50287" ry="9.47368" fill="#030303" stroke="#030303" stroke-width="9"/>
<ellipse cx="561.66" cy="1206.48" rx="9.50287" ry="9.47368" fill="#030303" stroke="#030303" stroke-width="9"/>
<ellipse cx="561.494" cy="1104.89" rx="9.50287" ry="9.47368" fill="#030303" stroke="#030303" stroke-width="9"/>
<ellipse cx="560.866" cy="1002.54" rx="9.50287" ry="9.47368" fill="#030303" stroke="#030303" stroke-width="9"/>
<ellipse cx="559.254" cy="902.018" rx="9.50287" ry="9.47368" fill="#030303" stroke="#030303" stroke-width="9"/>
<ellipse cx="557.048" cy="800.694" rx="9.50287" ry="9.47368" fill="#030303" stroke="#030303" stroke-width="9"/>
<ellipse cx="553.872" cy="699.601" rx="9.50287" ry="9.47368" fill="#030303" stroke="#030303" stroke-width="9"/>
<ellipse cx="553.785" cy="592.381" rx="9.50287" ry="9.47368" fill="#030303" stroke="#030303" stroke-width="9"/>
<ellipse cx="548.151" cy="492.916" rx="9.50287" ry="9.47368" fill="#030303" stroke="#030303" stroke-width="9"/>
<ellipse cx="551.365" cy="381.391" rx="9.50287" ry="9.47368" fill="#030303" stroke="#030303" stroke-width="9"/>
<ellipse cx="544.984" cy="281.607" rx="9.50287" ry="9.47368" fill="#030303" stroke="#030303" stroke-width="9"/>
<ellipse cx="533.056" cy="183.346" rx="9.50287" ry="9.47368" fill="#030303" stroke="#030303" stroke-width="9"/>
<ellipse cx="518.276" cy="81.8848" rx="9.50287" ry="9.47368" fill="#030303" stroke="#030303" stroke-width="9"/>
<ellipse cx="574.848" cy="2011.15" rx="9.50287" ry="9.47368" fill="#030303" stroke="#030303" stroke-width="9"/>
<ellipse cx="581.635" cy="1902.73" rx="9.50287" ry="9.47368" fill="#030303" stroke="#030303" stroke-width="9"/>
<ellipse cx="590.887" cy="1795.24" rx="9.50287" ry="9.47368" fill="#030303" stroke="#030303" stroke-width="9"/>
<ellipse cx="604.606" cy="1690.51" rx="9.50287" ry="9.47368" fill="#030303" stroke="#030303" stroke-width="9"/>
<ellipse cx="620.833" cy="1591.45" rx="9.50287" ry="9.47368" fill="#030303" stroke="#030303" stroke-width="9"/>
<ellipse cx="636.904" cy="1502.33" rx="9.50287" ry="9.47368" fill="#030303" stroke="#030303" stroke-width="9"/>
<ellipse cx="642.985" cy="1411.63" rx="9.50287" ry="9.47368" fill="#030303" stroke="#030303" stroke-width="9"/>
<ellipse cx="644.024" cy="1315.99" rx="9.50287" ry="9.47368" fill="#030303" stroke="#030303" stroke-width="9"/>
<ellipse cx="642.967" cy="1218.68" rx="9.50287" ry="9.47368" fill="#030303" stroke="#030303" stroke-width="9"/>
<ellipse cx="638.244" cy="1125.33" rx="9.50287" ry="9.47368" fill="#030303" stroke="#030303" stroke-width="9"/>
<ellipse cx="636.044" cy="1022.02" rx="9.50287" ry="9.47368" fill="#030303" stroke="#030303" stroke-width="9"/>
<ellipse cx="633.167" cy="919.011" rx="9.50287" ry="9.47368" fill="#030303" stroke="#030303" stroke-width="9"/>
<ellipse cx="635.564" cy="808.073" rx="9.50287" ry="9.47368" fill="#030303" stroke="#030303" stroke-width="9"/>
<ellipse cx="635.002" cy="701.599" rx="9.50287" ry="9.47368" fill="#030303" stroke="#030303" stroke-width="9"/>
<ellipse cx="628.004" cy="603.043" rx="9.50287" ry="9.47368" fill="#030303" stroke="#030303" stroke-width="9"/>
<ellipse cx="624.741" cy="498.781" rx="9.50287" ry="9.47368" fill="#030303" stroke="#030303" stroke-width="9"/>
<ellipse cx="623.686" cy="392.318" rx="9.50287" ry="9.47368" fill="#030303" stroke="#030303" stroke-width="9"/>
<ellipse cx="615.952" cy="290.4" rx="9.50287" ry="9.47368" fill="#030303" stroke="#030303" stroke-width="9"/>
<ellipse cx="607.799" cy="186.987" rx="9.50287" ry="9.47368" fill="#030303" stroke="#030303" stroke-width="9"/>
<ellipse cx="609.552" cy="78.9009" rx="9.50287" ry="9.47368" fill="#030303" stroke="#030303" stroke-width="9"/>
<ellipse cx="674.207" cy="2010.05" rx="9.50287" ry="9.47368" fill="#030303" stroke="#030303" stroke-width="9"/>
<ellipse cx="684.066" cy="1904.4" rx="9.50287" ry="9.47368" fill="#030303" stroke="#030303" stroke-width="9"/>
<ellipse cx="689.325" cy="1798.7" rx="9.50287" ry="9.47368" fill="#030303" stroke="#030303" stroke-width="9"/>
<ellipse cx="696.739" cy="1694.72" rx="9.50287" ry="9.47368" fill="#030303" stroke="#030303" stroke-width="9"/>
<ellipse cx="706.806" cy="1594.34" rx="9.50287" ry="9.47368" fill="#030303" stroke="#030303" stroke-width="9"/>
<ellipse cx="718.152" cy="1500.41" rx="9.50287" ry="9.47368" fill="#030303" stroke="#030303" stroke-width="9"/>
<ellipse cx="726.266" cy="1418.7" rx="9.50287" ry="9.47368" fill="#030303" stroke="#030303" stroke-width="9"/>
<ellipse cx="725.1" cy="1327.14" rx="9.50287" ry="9.47368" fill="#030303" stroke="#030303" stroke-width="9"/>
<ellipse cx="718.139" cy="1237.19" rx="9.50287" ry="9.47368" fill="#030303" stroke="#030303" stroke-width="9"/>
<ellipse cx="700.789" cy="1147.81" rx="9.50287" ry="9.47368" fill="#030303" stroke="#030303" stroke-width="9"/>
<ellipse cx="698.596" cy="1041.81" rx="9.50287" ry="9.47368" fill="#030303" stroke="#030303" stroke-width="9"/>
<ellipse cx="697.098" cy="935.306" rx="9.50287" ry="9.47368" fill="#030303" stroke="#030303" stroke-width="9"/>
<ellipse cx="705.332" cy="822.378" rx="9.50287" ry="9.47368" fill="#030303" stroke="#030303" stroke-width="9"/>
<ellipse cx="711.702" cy="708.982" rx="9.50287" ry="9.47368" fill="#030303" stroke="#030303" stroke-width="9"/>
<ellipse cx="710.047" cy="603.366" rx="9.50287" ry="9.47368" fill="#030303" stroke="#030303" stroke-width="9"/>
<ellipse cx="706.716" cy="499.117" rx="9.50287" ry="9.47368" fill="#030303" stroke="#030303" stroke-width="9"/>
<ellipse cx="709.437" cy="389.235" rx="9.50287" ry="9.47368" fill="#030303" stroke="#030303" stroke-width="9"/>
<ellipse cx="704.99" cy="285.811" rx="9.50287" ry="9.47368" fill="#030303" stroke="#030303" stroke-width="9"/>
<ellipse cx="699.774" cy="182.144" rx="9.50287" ry="9.47368" fill="#030303" stroke="#030303" stroke-width="9"/>
<ellipse cx="702.864" cy="72.691" rx="9.50287" ry="9.47368" fill="#030303" stroke="#030303" stroke-width="9"/>
<ellipse cx="779.623" cy="2017.11" rx="9.50287" ry="9.47368" fill="#030303" stroke="#030303" stroke-width="9"/>
<ellipse cx="785.652" cy="1913.63" rx="9.50287" ry="9.47368" fill="#030303" stroke="#030303" stroke-width="9"/>
<ellipse cx="779.283" cy="1802.19" rx="9.50287" ry="9.47368" fill="#030303" stroke="#030303" stroke-width="9"/>
<ellipse cx="782.164" cy="1696.51" rx="9.50287" ry="9.47368" fill="#030303" stroke="#030303" stroke-width="9"/>
<ellipse cx="792.006" cy="1596.98" rx="9.50287" ry="9.47368" fill="#030303" stroke="#030303" stroke-width="9"/>
<ellipse cx="797.336" cy="1495.73" rx="9.50287" ry="9.47368" fill="#030303" stroke="#030303" stroke-width="9"/>
<ellipse cx="808.586" cy="1426.76" rx="9.50287" ry="9.47368" fill="#030303" stroke="#030303" stroke-width="9"/>
<ellipse cx="800.553" cy="1344.47" rx="9.50287" ry="9.47368" fill="#030303" stroke="#030303" stroke-width="9"/>
<ellipse cx="782.738" cy="1255.44" rx="9.50287" ry="9.47368" fill="#030303" stroke="#030303" stroke-width="9"/>
<ellipse cx="757.545" cy="1156.92" rx="9.50287" ry="9.47368" fill="#030303" stroke="#030303" stroke-width="9"/>
<ellipse cx="759.522" cy="1049.31" rx="9.50287" ry="9.47368" fill="#030303" stroke="#030303" stroke-width="9"/>
<ellipse cx="761.28" cy="941.673" rx="9.50287" ry="9.47368" fill="#030303" stroke="#030303" stroke-width="9"/>
<ellipse cx="764.157" cy="833.743" rx="9.50287" ry="9.47368" fill="#030303" stroke="#030303" stroke-width="9"/>
<ellipse cx="780.029" cy="720.246" rx="9.50287" ry="9.47368" fill="#030303" stroke="#030303" stroke-width="9"/>
<ellipse cx="795.192" cy="600.322" rx="9.50287" ry="9.47368" fill="#030303" stroke="#030303" stroke-width="9"/>
<ellipse cx="786.565" cy="501.162" rx="9.50287" ry="9.47368" fill="#030303" stroke="#030303" stroke-width="9"/>
<ellipse cx="801.055" cy="377.311" rx="9.50287" ry="9.47368" fill="#030303" stroke="#030303" stroke-width="9"/>
<ellipse cx="802.898" cy="266.503" rx="9.50287" ry="9.47368" fill="#030303" stroke="#030303" stroke-width="9"/>
<ellipse cx="799.031" cy="165.797" rx="9.50287" ry="9.47368" fill="#030303" stroke="#030303" stroke-width="9"/>
<ellipse cx="789.581" cy="69.2002" rx="9.50287" ry="9.47368" fill="#030303" stroke="#030303" stroke-width="9"/>
<ellipse cx="879.218" cy="2031.94" rx="9.50287" ry="9.47368" fill="#030303" stroke="#030303" stroke-width="9"/>
<ellipse cx="869.897" cy="1915.09" rx="9.50287" ry="9.47368" fill="#030303" stroke="#030303" stroke-width="9"/>
<ellipse cx="864.942" cy="1804.15" rx="9.50287" ry="9.47368" fill="#030303" stroke="#030303" stroke-width="9"/>
<ellipse cx="865.165" cy="1696.92" rx="9.50287" ry="9.47368" fill="#030303" stroke="#030303" stroke-width="9"/>
<ellipse cx="867.782" cy="1591.36" rx="9.50287" ry="9.47368" fill="#030303" stroke="#030303" stroke-width="9"/>
<ellipse cx="884.758" cy="1503.78" rx="9.50287" ry="9.47368" fill="#030303" stroke="#030303" stroke-width="9"/>
<ellipse cx="889.333" cy="1436.54" rx="9.50287" ry="9.47368" fill="#030303" stroke="#030303" stroke-width="9"/>
<ellipse cx="868.255" cy="1360.61" rx="9.50287" ry="9.47368" fill="#030303" stroke="#030303" stroke-width="9"/>
<ellipse cx="848.259" cy="1262.8" rx="9.50287" ry="9.47368" fill="#030303" stroke="#030303" stroke-width="9"/>
<ellipse cx="838.79" cy="1157.02" rx="9.50287" ry="9.47368" fill="#030303" stroke="#030303" stroke-width="9"/>
<ellipse cx="823.404" cy="1048.84" rx="9.50287" ry="9.47368" fill="#030303" stroke="#030303" stroke-width="9"/>
<ellipse cx="835.787" cy="942.452" rx="9.50287" ry="9.47368" fill="#030303" stroke="#030303" stroke-width="9"/>
<ellipse cx="828.356" cy="834.82" rx="9.50287" ry="9.47368" fill="#030303" stroke="#030303" stroke-width="9"/>
<ellipse cx="842.571" cy="727.107" rx="9.50287" ry="9.47368" fill="#030303" stroke="#030303" stroke-width="9"/>
<ellipse cx="869.275" cy="608.256" rx="9.50287" ry="9.47368" fill="#030303" stroke="#030303" stroke-width="9"/>
<ellipse cx="880.047" cy="489.805" rx="9.50287" ry="9.47368" fill="#030303" stroke="#030303" stroke-width="9"/>
<ellipse cx="886.373" cy="371.47" rx="9.50287" ry="9.47368" fill="#030303" stroke="#030303" stroke-width="9"/>
<ellipse cx="888.396" cy="258.745" rx="9.50287" ry="9.47368" fill="#030303" stroke="#030303" stroke-width="9"/>
<ellipse cx="884.881" cy="159.881" rx="9.50287" ry="9.47368" fill="#030303" stroke="#030303" stroke-width="9"/>
<ellipse cx="869.298" cy="71.398" rx="9.50287" ry="9.47368" fill="#030303" stroke="#030303" stroke-width="9"/>
<ellipse cx="965.35" cy="2037.46" rx="9.50287" ry="9.47368" fill="#030303" stroke="#030303" stroke-width="9"/>
<ellipse cx="962.471" cy="1925.76" rx="9.50287" ry="9.47368" fill="#030303" stroke="#030303" stroke-width="9"/>
<ellipse cx="960.265" cy="1815.58" rx="9.50287" ry="9.47368" fill="#030303" stroke="#030303" stroke-width="9"/>
<ellipse cx="963.185" cy="1712.02" rx="9.50287" ry="9.47368" fill="#030303" stroke="#030303" stroke-width="9"/>
<ellipse cx="968.001" cy="1612.94" rx="9.50287" ry="9.47368" fill="#030303" stroke="#030303" stroke-width="9"/>
<ellipse cx="969.465" cy="1508.93" rx="9.50287" ry="9.47368" fill="#030303" stroke="#030303" stroke-width="9"/>
<ellipse cx="973.136" cy="1428.58" rx="9.50287" ry="9.47368" fill="#030303" stroke="#030303" stroke-width="9"/>
<ellipse cx="962.059" cy="1349.22" rx="9.50287" ry="9.47368" fill="#030303" stroke="#030303" stroke-width="9"/>
<ellipse cx="940.108" cy="1259.46" rx="9.50287" ry="9.47368" fill="#030303" stroke="#030303" stroke-width="9"/>
<ellipse cx="915.107" cy="1157.2" rx="9.50287" ry="9.47368" fill="#030303" stroke="#030303" stroke-width="9"/>
<ellipse cx="917.595" cy="1049.83" rx="9.50287" ry="9.47368" fill="#030303" stroke="#030303" stroke-width="9"/>
<ellipse cx="911.64" cy="942.275" rx="9.50287" ry="9.47368" fill="#030303" stroke="#030303" stroke-width="9"/>
<ellipse cx="928.341" cy="833.858" rx="9.50287" ry="9.47368" fill="#030303" stroke="#030303" stroke-width="9"/>
<ellipse cx="945.16" cy="720.006" rx="9.50287" ry="9.47368" fill="#030303" stroke="#030303" stroke-width="9"/>
<ellipse cx="957.505" cy="602.973" rx="9.50287" ry="9.47368" fill="#030303" stroke="#030303" stroke-width="9"/>
<ellipse cx="966.603" cy="483.197" rx="9.50287" ry="9.47368" fill="#030303" stroke="#030303" stroke-width="9"/>
<ellipse cx="971.506" cy="363.564" rx="9.50287" ry="9.47368" fill="#030303" stroke="#030303" stroke-width="9"/>
<ellipse cx="972.289" cy="252.913" rx="9.50287" ry="9.47368" fill="#030303" stroke="#030303" stroke-width="9"/>
<ellipse cx="969.297" cy="155.391" rx="9.50287" ry="9.47368" fill="#030303" stroke="#030303" stroke-width="9"/>
<ellipse cx="952.748" cy="70.521" rx="9.50287" ry="9.47368" fill="#030303" stroke="#030303" stroke-width="9"/>
<ellipse cx="1047.94" cy="2037.85" rx="9.50287" ry="9.47368" fill="#030303" stroke="#030303" stroke-width="9"/>
<ellipse cx="1049.8" cy="1933.88" rx="9.50287" ry="9.47368" fill="#030303" stroke="#030303" stroke-width="9"/>
<ellipse cx="1051.83" cy="1831.06" rx="9.50287" ry="9.47368" fill="#030303" stroke="#030303" stroke-width="9"/>
<ellipse cx="1054.27" cy="1731.41" rx="9.50287" ry="9.47368" fill="#030303" stroke="#030303" stroke-width="9"/>
<ellipse cx="1055.8" cy="1635.56" rx="9.50287" ry="9.47368" fill="#030303" stroke="#030303" stroke-width="9"/>
<ellipse cx="1054.75" cy="1540.83" rx="9.50287" ry="9.47368" fill="#030303" stroke="#030303" stroke-width="9"/>
<ellipse cx="1052.09" cy="1442.72" rx="9.50287" ry="9.47368" fill="#030303" stroke="#030303" stroke-width="9"/>
<ellipse cx="1049.76" cy="1340.62" rx="9.50287" ry="9.47368" fill="#030303" stroke="#030303" stroke-width="9"/>
<ellipse cx="1042.8" cy="1243.9" rx="9.50287" ry="9.47368" fill="#030303" stroke="#030303" stroke-width="9"/>
<ellipse cx="1026.36" cy="1150.14" rx="9.50287" ry="9.47368" fill="#030303" stroke="#030303" stroke-width="9"/>
<ellipse cx="1012.25" cy="1048.24" rx="9.50287" ry="9.47368" fill="#030303" stroke="#030303" stroke-width="9"/>
<ellipse cx="1018.1" cy="939.123" rx="9.50287" ry="9.47368" fill="#030303" stroke="#030303" stroke-width="9"/>
<ellipse cx="1038.22" cy="819.344" rx="9.50287" ry="9.47368" fill="#030303" stroke="#030303" stroke-width="9"/>
<ellipse cx="1047.54" cy="700.412" rx="9.50287" ry="9.47368" fill="#030303" stroke="#030303" stroke-width="9"/>
<ellipse cx="1053.05" cy="581.047" rx="9.50287" ry="9.47368" fill="#030303" stroke="#030303" stroke-width="9"/>
<ellipse cx="1055.82" cy="456.767" rx="9.50287" ry="9.47368" fill="#030303" stroke="#030303" stroke-width="9"/>
<ellipse cx="1055.42" cy="355.569" rx="9.50287" ry="9.47368" fill="#030303" stroke="#030303" stroke-width="9"/>
<ellipse cx="1051.49" cy="263.162" rx="9.50287" ry="9.47368" fill="#030303" stroke="#030303" stroke-width="9"/>
<ellipse cx="1044.49" cy="168.062" rx="9.50287" ry="9.47368" fill="#030303" stroke="#030303" stroke-width="9"/>
<ellipse cx="1027.62" cy="75.7378" rx="9.50287" ry="9.47368" fill="#030303" stroke="#030303" stroke-width="9"/>
<ellipse cx="1131.99" cy="2040.94" rx="9.50287" ry="9.47368" fill="#030303" stroke="#030303" stroke-width="9"/>
<ellipse cx="1131.86" cy="1933.3" rx="9.50287" ry="9.47368" fill="#030303" stroke="#030303" stroke-width="9"/>
<ellipse cx="1135.67" cy="1835.28" rx="9.50287" ry="9.47368" fill="#030303" stroke="#030303" stroke-width="9"/>
<ellipse cx="1138.11" cy="1741.82" rx="9.50287" ry="9.47368" fill="#030303" stroke="#030303" stroke-width="9"/>
<ellipse cx="1136.57" cy="1650.63" rx="9.50287" ry="9.47368" fill="#030303" stroke="#030303" stroke-width="9"/>
<ellipse cx="1131.22" cy="1557.07" rx="9.50287" ry="9.47368" fill="#030303" stroke="#030303" stroke-width="9"/>
<ellipse cx="1129.04" cy="1453.34" rx="9.50287" ry="9.47368" fill="#030303" stroke="#030303" stroke-width="9"/>
<ellipse cx="1132.44" cy="1339.97" rx="9.50287" ry="9.47368" fill="#030303" stroke="#030303" stroke-width="9"/>
<ellipse cx="1134.17" cy="1228.68" rx="9.50287" ry="9.47368" fill="#030303" stroke="#030303" stroke-width="9"/>
<ellipse cx="1131.62" cy="1126.84" rx="9.50287" ry="9.47368" fill="#030303" stroke="#030303" stroke-width="9"/>
<ellipse cx="1121.71" cy="1032.97" rx="9.50287" ry="9.47368" fill="#030303" stroke="#030303" stroke-width="9"/>
<ellipse cx="1127.67" cy="918.529" rx="9.50287" ry="9.47368" fill="#030303" stroke="#030303" stroke-width="9"/>
<ellipse cx="1135.33" cy="796.02" rx="9.50287" ry="9.47368" fill="#030303" stroke="#030303" stroke-width="9"/>
<ellipse cx="1137.46" cy="679.933" rx="9.50287" ry="9.47368" fill="#030303" stroke="#030303" stroke-width="9"/>
<ellipse cx="1138.12" cy="560.844" rx="9.50287" ry="9.47368" fill="#030303" stroke="#030303" stroke-width="9"/>
<ellipse cx="1136.29" cy="441.655" rx="9.50287" ry="9.47368" fill="#030303" stroke="#030303" stroke-width="9"/>
<ellipse cx="1138.17" cy="347.933" rx="9.50287" ry="9.47368" fill="#030303" stroke="#030303" stroke-width="9"/>
<ellipse cx="1134.01" cy="262.77" rx="9.50287" ry="9.47368" fill="#030303" stroke="#030303" stroke-width="9"/>
<ellipse cx="1125.6" cy="169.68" rx="9.50287" ry="9.47368" fill="#030303" stroke="#030303" stroke-width="9"/>
<ellipse cx="1110.86" cy="75.2125" rx="9.50287" ry="9.47368" fill="#030303" stroke="#030303" stroke-width="9"/>
<ellipse cx="1214.88" cy="2042" rx="9.50287" ry="9.47368" fill="#030303" stroke="#030303" stroke-width="9"/>
<ellipse cx="1206.79" cy="1922.3" rx="9.50287" ry="9.47368" fill="#030303" stroke="#030303" stroke-width="9"/>
<ellipse cx="1214.66" cy="1826.81" rx="9.50287" ry="9.47368" fill="#030303" stroke="#030303" stroke-width="9"/>
<ellipse cx="1220.27" cy="1739.06" rx="9.50287" ry="9.47368" fill="#030303" stroke="#030303" stroke-width="9"/>
<ellipse cx="1218.9" cy="1650.76" rx="9.50287" ry="9.47368" fill="#030303" stroke="#030303" stroke-width="9"/>
<ellipse cx="1216.77" cy="1550.18" rx="9.50287" ry="9.47368" fill="#030303" stroke="#030303" stroke-width="9"/>
<ellipse cx="1210.49" cy="1454.7" rx="9.50287" ry="9.47368" fill="#030303" stroke="#030303" stroke-width="9"/>
<ellipse cx="1211.18" cy="1346.31" rx="9.50287" ry="9.47368" fill="#030303" stroke="#030303" stroke-width="9"/>
<ellipse cx="1217.89" cy="1224.86" rx="9.50287" ry="9.47368" fill="#030303" stroke="#030303" stroke-width="9"/>
<ellipse cx="1220.3" cy="1105.57" rx="9.50287" ry="9.47368" fill="#030303" stroke="#030303" stroke-width="9"/>
<ellipse cx="1220.26" cy="998.642" rx="9.50287" ry="9.47368" fill="#030303" stroke="#030303" stroke-width="9"/>
<ellipse cx="1220.46" cy="888.752" rx="9.50287" ry="9.47368" fill="#030303" stroke="#030303" stroke-width="9"/>
<ellipse cx="1220.5" cy="776.124" rx="9.50287" ry="9.47368" fill="#030303" stroke="#030303" stroke-width="9"/>
<ellipse cx="1220.18" cy="664.483" rx="9.50287" ry="9.47368" fill="#030303" stroke="#030303" stroke-width="9"/>
<ellipse cx="1217.16" cy="544.248" rx="9.50287" ry="9.47368" fill="#030303" stroke="#030303" stroke-width="9"/>
<ellipse cx="1216.38" cy="434.835" rx="9.50287" ry="9.47368" fill="#030303" stroke="#030303" stroke-width="9"/>
<ellipse cx="1219.23" cy="336.684" rx="9.50287" ry="9.47368" fill="#030303" stroke="#030303" stroke-width="9"/>
<ellipse cx="1220.3" cy="246.626" rx="9.50287" ry="9.47368" fill="#030303" stroke="#030303" stroke-width="9"/>
<ellipse cx="1216.63" cy="154.751" rx="9.50287" ry="9.47368" fill="#030303" stroke="#030303" stroke-width="9"/>
<ellipse cx="1209.84" cy="59.8443" rx="9.50287" ry="9.47368" fill="#030303" stroke="#030303" stroke-width="9"/>
<ellipse cx="1299.31" cy="2046.84" rx="9.50287" ry="9.47368" fill="#030303" stroke="#030303" stroke-width="9"/>
<ellipse cx="1292.43" cy="1926.5" rx="9.50287" ry="9.47368" fill="#030303" stroke="#030303" stroke-width="9"/>
<ellipse cx="1301.12" cy="1837.89" rx="9.50287" ry="9.47368" fill="#030303" stroke="#030303" stroke-width="9"/>
<ellipse cx="1302.87" cy="1742.88" rx="9.50287" ry="9.47368" fill="#030303" stroke="#030303" stroke-width="9"/>
<ellipse cx="1302.71" cy="1632.54" rx="9.50287" ry="9.47368" fill="#030303" stroke="#030303" stroke-width="9"/>
<ellipse cx="1302.63" cy="1535.33" rx="9.50287" ry="9.47368" fill="#030303" stroke="#030303" stroke-width="9"/>
<ellipse cx="1300.12" cy="1440" rx="9.50287" ry="9.47368" fill="#030303" stroke="#030303" stroke-width="9"/>
<ellipse cx="1300.1" cy="1332.7" rx="9.50287" ry="9.47368" fill="#030303" stroke="#030303" stroke-width="9"/>
<ellipse cx="1302.87" cy="1209.53" rx="9.50287" ry="9.47368" fill="#030303" stroke="#030303" stroke-width="9"/>
<ellipse cx="1302.15" cy="1091.18" rx="9.50287" ry="9.47368" fill="#030303" stroke="#030303" stroke-width="9"/>
<ellipse cx="1295.61" cy="965.19" rx="9.50287" ry="9.47368" fill="#030303" stroke="#030303" stroke-width="9"/>
<ellipse cx="1300.85" cy="870.524" rx="9.50287" ry="9.47368" fill="#030303" stroke="#030303" stroke-width="9"/>
<ellipse cx="1299.49" cy="758.91" rx="9.50287" ry="9.47368" fill="#030303" stroke="#030303" stroke-width="9"/>
<ellipse cx="1298.98" cy="650.19" rx="9.50287" ry="9.47368" fill="#030303" stroke="#030303" stroke-width="9"/>
<ellipse cx="1296.2" cy="536.792" rx="9.50287" ry="9.47368" fill="#030303" stroke="#030303" stroke-width="9"/>
<ellipse cx="1296.13" cy="429.304" rx="9.50287" ry="9.47368" fill="#030303" stroke="#030303" stroke-width="9"/>
<ellipse cx="1299.94" cy="330.723" rx="9.50287" ry="9.47368" fill="#030303" stroke="#030303" stroke-width="9"/>
<ellipse cx="1300.68" cy="225.707" rx="9.50287" ry="9.47368" fill="#030303" stroke="#030303" stroke-width="9"/>
<ellipse cx="1302.77" cy="137.835" rx="9.50287" ry="9.47368" fill="#030303" stroke="#030303" stroke-width="9"/>
<ellipse cx="1294.09" cy="57.0411" rx="9.50287" ry="9.47368" fill="#030303" stroke="#030303" stroke-width="9"/>
<ellipse cx="1378.93" cy="2040.67" rx="9.50287" ry="9.47368" fill="#030303" stroke="#030303" stroke-width="9"/>
<ellipse cx="1379.95" cy="1935.38" rx="9.50287" ry="9.47368" fill="#030303" stroke="#030303" stroke-width="9"/>
<ellipse cx="1384.93" cy="1845.9" rx="9.50287" ry="9.47368" fill="#030303" stroke="#030303" stroke-width="9"/>
<ellipse cx="1384.79" cy="1751.88" rx="9.50287" ry="9.47368" fill="#030303" stroke="#030303" stroke-width="9"/>
<ellipse cx="1384.24" cy="1647.91" rx="9.50287" ry="9.47368" fill="#030303" stroke="#030303" stroke-width="9"/>
<ellipse cx="1385.16" cy="1533.11" rx="9.50287" ry="9.47368" fill="#030303" stroke="#030303" stroke-width="9"/>
<ellipse cx="1384.92" cy="1428.67" rx="9.50287" ry="9.47368" fill="#030303" stroke="#030303" stroke-width="9"/>
<ellipse cx="1385.26" cy="1315.53" rx="9.50287" ry="9.47368" fill="#030303" stroke="#030303" stroke-width="9"/>
<ellipse cx="1382.71" cy="1190.95" rx="9.50287" ry="9.47368" fill="#030303" stroke="#030303" stroke-width="9"/>
<ellipse cx="1379.82" cy="1076.14" rx="9.50287" ry="9.47368" fill="#030303" stroke="#030303" stroke-width="9"/>
<ellipse cx="1378.04" cy="965.322" rx="9.50287" ry="9.47368" fill="#030303" stroke="#030303" stroke-width="9"/>
<ellipse cx="1380.16" cy="862.138" rx="9.50287" ry="9.47368" fill="#030303" stroke="#030303" stroke-width="9"/>
<ellipse cx="1379.41" cy="753.189" rx="9.50287" ry="9.47368" fill="#030303" stroke="#030303" stroke-width="9"/>
<ellipse cx="1378.81" cy="644.656" rx="9.50287" ry="9.47368" fill="#030303" stroke="#030303" stroke-width="9"/>
<ellipse cx="1373.59" cy="529.085" rx="9.50287" ry="9.47368" fill="#030303" stroke="#030303" stroke-width="9"/>
<ellipse cx="1369.95" cy="417.4" rx="9.50287" ry="9.47368" fill="#030303" stroke="#030303" stroke-width="9"/>
<ellipse cx="1378.34" cy="321.656" rx="9.50287" ry="9.47368" fill="#030303" stroke="#030303" stroke-width="9"/>
<ellipse cx="1380.81" cy="219.42" rx="9.50287" ry="9.47368" fill="#030303" stroke="#030303" stroke-width="9"/>
<ellipse cx="1385.19" cy="131.376" rx="9.50287" ry="9.47368" fill="#030303" stroke="#030303" stroke-width="9"/>
<ellipse cx="1379.32" cy="51.9419" rx="9.50287" ry="9.47368" fill="#030303" stroke="#030303" stroke-width="9"/>
<ellipse cx="1462.08" cy="2042.26" rx="9.50287" ry="9.47368" fill="#030303" stroke="#030303" stroke-width="9"/>
<ellipse cx="1463.8" cy="1938.87" rx="9.50287" ry="9.47368" fill="#030303" stroke="#030303" stroke-width="9"/>
<ellipse cx="1467.31" cy="1846.11" rx="9.50287" ry="9.47368" fill="#030303" stroke="#030303" stroke-width="9"/>
<ellipse cx="1467.57" cy="1746.82" rx="9.50287" ry="9.47368" fill="#030303" stroke="#030303" stroke-width="9"/>
<ellipse cx="1467.51" cy="1640.58" rx="9.50287" ry="9.47368" fill="#030303" stroke="#030303" stroke-width="9"/>
<ellipse cx="1467.52" cy="1526.59" rx="9.50287" ry="9.47368" fill="#030303" stroke="#030303" stroke-width="9"/>
<ellipse cx="1465.23" cy="1406.19" rx="9.50287" ry="9.47368" fill="#030303" stroke="#030303" stroke-width="9"/>
<ellipse cx="1460.68" cy="1287.94" rx="9.50287" ry="9.47368" fill="#030303" stroke="#030303" stroke-width="9"/>
<ellipse cx="1453.38" cy="1170.16" rx="9.50287" ry="9.47368" fill="#030303" stroke="#030303" stroke-width="9"/>
<ellipse cx="1455.72" cy="1065.62" rx="9.50287" ry="9.47368" fill="#030303" stroke="#030303" stroke-width="9"/>
<ellipse cx="1459.87" cy="964.401" rx="9.50287" ry="9.47368" fill="#030303" stroke="#030303" stroke-width="9"/>
<ellipse cx="1455.82" cy="851.018" rx="9.50287" ry="9.47368" fill="#030303" stroke="#030303" stroke-width="9"/>
<ellipse cx="1451.65" cy="738.822" rx="9.50287" ry="9.47368" fill="#030303" stroke="#030303" stroke-width="9"/>
<ellipse cx="1448.47" cy="628.407" rx="9.50287" ry="9.47368" fill="#030303" stroke="#030303" stroke-width="9"/>
<ellipse cx="1440.52" cy="515.146" rx="9.50287" ry="9.47368" fill="#030303" stroke="#030303" stroke-width="9"/>
<ellipse cx="1436.72" cy="405.635" rx="9.50287" ry="9.47368" fill="#030303" stroke="#030303" stroke-width="9"/>
<ellipse cx="1450.42" cy="308.116" rx="9.50287" ry="9.47368" fill="#030303" stroke="#030303" stroke-width="9"/>
<ellipse cx="1459.97" cy="212.996" rx="9.50287" ry="9.47368" fill="#030303" stroke="#030303" stroke-width="9"/>
<ellipse cx="1467.18" cy="127.021" rx="9.50287" ry="9.47368" fill="#030303" stroke="#030303" stroke-width="9"/>
<ellipse cx="1463.07" cy="48.9307" rx="9.50287" ry="9.47368" fill="#030303" stroke="#030303" stroke-width="9"/>
<ellipse cx="1544.79" cy="2043.01" rx="9.50287" ry="9.47368" fill="#030303" stroke="#030303" stroke-width="9"/>
<ellipse cx="1546.73" cy="1940.42" rx="9.50287" ry="9.47368" fill="#030303" stroke="#030303" stroke-width="9"/>
<ellipse cx="1549.21" cy="1842.7" rx="9.50287" ry="9.47368" fill="#030303" stroke="#030303" stroke-width="9"/>
<ellipse cx="1549.65" cy="1738.53" rx="9.50287" ry="9.47368" fill="#030303" stroke="#030303" stroke-width="9"/>
<ellipse cx="1549.41" cy="1629.22" rx="9.50287" ry="9.47368" fill="#030303" stroke="#030303" stroke-width="9"/>
<ellipse cx="1548.3" cy="1516.19" rx="9.50287" ry="9.47368" fill="#030303" stroke="#030303" stroke-width="9"/>
<ellipse cx="1540.78" cy="1391.53" rx="9.50287" ry="9.47368" fill="#030303" stroke="#030303" stroke-width="9"/>
<ellipse cx="1535.68" cy="1277.46" rx="9.50287" ry="9.47368" fill="#030303" stroke="#030303" stroke-width="9"/>
<ellipse cx="1530.45" cy="1164.92" rx="9.50287" ry="9.47368" fill="#030303" stroke="#030303" stroke-width="9"/>
<ellipse cx="1534.61" cy="1061.55" rx="9.50287" ry="9.47368" fill="#030303" stroke="#030303" stroke-width="9"/>
<ellipse cx="1539.48" cy="960.149" rx="9.50287" ry="9.47368" fill="#030303" stroke="#030303" stroke-width="9"/>
<ellipse cx="1534.97" cy="847.21" rx="9.50287" ry="9.47368" fill="#030303" stroke="#030303" stroke-width="9"/>
<ellipse cx="1526.86" cy="732.565" rx="9.50287" ry="9.47368" fill="#030303" stroke="#030303" stroke-width="9"/>
<ellipse cx="1518.22" cy="619.945" rx="9.50287" ry="9.47368" fill="#030303" stroke="#030303" stroke-width="9"/>
<ellipse cx="1506.1" cy="508.218" rx="9.50287" ry="9.47368" fill="#030303" stroke="#030303" stroke-width="9"/>
<ellipse cx="1506.34" cy="400.908" rx="9.50287" ry="9.47368" fill="#030303" stroke="#030303" stroke-width="9"/>
<ellipse cx="1519.3" cy="298.381" rx="9.50287" ry="9.47368" fill="#030303" stroke="#030303" stroke-width="9"/>
<ellipse cx="1536.49" cy="204.721" rx="9.50287" ry="9.47368" fill="#030303" stroke="#030303" stroke-width="9"/>
<ellipse cx="1547.61" cy="117.842" rx="9.50287" ry="9.47368" fill="#030303" stroke="#030303" stroke-width="9"/>
<ellipse cx="1549.46" cy="34.254" rx="9.50287" ry="9.47368" fill="#030303" stroke="#030303" stroke-width="9"/>
<ellipse cx="1630.3" cy="2051.65" rx="9.50287" ry="9.47368" fill="#030303" stroke="#030303" stroke-width="9"/>
<ellipse cx="1631.64" cy="1950.52" rx="9.50287" ry="9.47368" fill="#030303" stroke="#030303" stroke-width="9"/>
<ellipse cx="1632.03" cy="1846.13" rx="9.50287" ry="9.47368" fill="#030303" stroke="#030303" stroke-width="9"/>
<ellipse cx="1632.05" cy="1738.92" rx="9.50287" ry="9.47368" fill="#030303" stroke="#030303" stroke-width="9"/>
<ellipse cx="1632" cy="1631.13" rx="9.50287" ry="9.47368" fill="#030303" stroke="#030303" stroke-width="9"/>
<ellipse cx="1631.33" cy="1519.23" rx="9.50287" ry="9.47368" fill="#030303" stroke="#030303" stroke-width="9"/>
<ellipse cx="1625.06" cy="1394.7" rx="9.50287" ry="9.47368" fill="#030303" stroke="#030303" stroke-width="9"/>
<ellipse cx="1623.3" cy="1284.41" rx="9.50287" ry="9.47368" fill="#030303" stroke="#030303" stroke-width="9"/>
<ellipse cx="1619.79" cy="1172.17" rx="9.50287" ry="9.47368" fill="#030303" stroke="#030303" stroke-width="9"/>
<ellipse cx="1613.45" cy="1058.11" rx="9.50287" ry="9.47368" fill="#030303" stroke="#030303" stroke-width="9"/>
<ellipse cx="1608.58" cy="946.841" rx="9.50287" ry="9.47368" fill="#030303" stroke="#030303" stroke-width="9"/>
<ellipse cx="1613.39" cy="843.326" rx="9.50287" ry="9.47368" fill="#030303" stroke="#030303" stroke-width="9"/>
<ellipse cx="1606.39" cy="730.609" rx="9.50287" ry="9.47368" fill="#030303" stroke="#030303" stroke-width="9"/>
<ellipse cx="1593.64" cy="617.072" rx="9.50287" ry="9.47368" fill="#030303" stroke="#030303" stroke-width="9"/>
<ellipse cx="1579.77" cy="506.861" rx="9.50287" ry="9.47368" fill="#030303" stroke="#030303" stroke-width="9"/>
<ellipse cx="1587.3" cy="400.591" rx="9.50287" ry="9.47368" fill="#030303" stroke="#030303" stroke-width="9"/>
<ellipse cx="1596.51" cy="296.023" rx="9.50287" ry="9.47368" fill="#030303" stroke="#030303" stroke-width="9"/>
<ellipse cx="1619.56" cy="205.57" rx="9.50287" ry="9.47368" fill="#030303" stroke="#030303" stroke-width="9"/>
<ellipse cx="1629.65" cy="116.836" rx="9.50287" ry="9.47368" fill="#030303" stroke="#030303" stroke-width="9"/>
<ellipse cx="1631" cy="14.4737" rx="9.50287" ry="9.47368" fill="#030303" stroke="#030303" stroke-width="9"/>
</svg>
